<svg width="31" height="29" viewBox="0 0 31 29" fill="none" xmlns="http://www.w3.org/2000/svg">
<path d="M11.064 1.00811C11.1689 1.07138 11.2604 1.15484 11.3333 1.25372C11.4061 1.35261 11.4589 1.46498 11.4887 1.58443C11.5184 1.70387 11.5245 1.82805 11.5065 1.94986C11.4886 2.07167 11.4471 2.18874 11.3842 2.29436L6.64506 10.25H23.8333L19.0923 2.29436C18.9654 2.08103 18.9279 1.82566 18.9879 1.58445C19.048 1.34323 19.2007 1.13591 19.4125 1.00811C19.6243 0.880311 19.8778 0.842491 20.1173 0.902971C20.3567 0.963452 20.5625 1.11728 20.6894 1.33061L26.0037 10.25H29.1998C29.4466 10.25 29.6834 10.3488 29.8579 10.5246C30.0324 10.7004 30.1305 10.9388 30.1305 11.1875V13.0625C30.1305 13.3111 30.0324 13.5496 29.8579 13.7254C29.6834 13.9012 29.4466 14 29.1998 14H1.27861C1.03177 14 0.795039 13.9012 0.620498 13.7254C0.445957 13.5496 0.3479 13.3111 0.3479 13.0625V11.1875C0.3479 10.9388 0.445957 10.7004 0.620498 10.5246C0.795039 10.3488 1.03177 10.25 1.27861 10.25H4.47465L9.78526 1.33061C9.84807 1.22496 9.93092 1.13281 10.0291 1.05943C10.1273 0.986039 10.2388 0.932852 10.3574 0.902903C10.476 0.872955 10.5993 0.866832 10.7202 0.884884C10.8411 0.902936 10.9573 0.944809 11.0622 1.00811H11.064ZM6.66553 27.125L3.91064 15.875H2.10507L4.94373 27.9237C5.01724 28.2305 5.19103 28.5034 5.43716 28.6986C5.68328 28.8938 5.98743 29 6.3007 29H24.1814C24.495 29.0004 24.7996 28.8944 25.0461 28.6992C25.2926 28.5039 25.4667 28.2308 25.5403 27.9237L28.3733 15.875H26.564L23.811 27.125H6.66739H6.66553Z" fill="white"/>
</svg>
