<svg width="15" height="15" viewBox="0 0 15 15" fill="none" xmlns="http://www.w3.org/2000/svg">
<path d="M1.72029 0.280712C1.53169 0.0985537 1.27908 -0.00224062 1.01689 3.78026e-05C0.75469 0.00231622 0.503878 0.107485 0.31847 0.292894C0.133061 0.478302 0.0278923 0.729114 0.0256139 0.991311C0.0233355 1.25351 0.12413 1.50611 0.306288 1.69471L6.08129 7.46971L0.305288 13.2447C0.209778 13.337 0.133595 13.4473 0.0811864 13.5693C0.0287774 13.6913 0.00119157 13.8225 3.77571e-05 13.9553C-0.00111606 14.0881 0.0241854 14.2198 0.0744663 14.3427C0.124747 14.4656 0.199 14.5772 0.292893 14.6711C0.386786 14.765 0.498438 14.8393 0.621334 14.8895C0.74423 14.9398 0.87591 14.9651 1.00869 14.964C1.14147 14.9628 1.27269 14.9352 1.39469 14.8828C1.5167 14.8304 1.62704 14.7542 1.71929 14.6587L7.49529 8.88371L13.2703 14.6587C13.4589 14.8409 13.7115 14.9417 13.9737 14.9394C14.2359 14.9371 14.4867 14.8319 14.6721 14.6465C14.8575 14.4611 14.9627 14.2103 14.965 13.9481C14.9672 13.6859 14.8664 13.4333 14.6843 13.2447L8.90929 7.46971L14.6843 1.69471C14.8664 1.50611 14.9672 1.25351 14.965 0.991311C14.9627 0.729114 14.8575 0.478302 14.6721 0.292894C14.4867 0.107485 14.2359 0.00231622 13.9737 3.78026e-05C13.7115 -0.00224062 13.4589 0.0985537 13.2703 0.280712L7.49529 6.05571L1.72029 0.279712V0.280712Z" fill="white"/>
</svg>
