<svg width="32" height="33" viewBox="0 0 32 33" fill="none" xmlns="http://www.w3.org/2000/svg">
<path d="M0.960967 14.5162L4.44144 14.5162C4.63909 14.5162 4.82815 14.6044 4.96136 14.7587L14.3672 25.8832L14.3672 1.05477C14.3672 0.860761 14.5219 0.702028 14.711 0.702028L17.2891 0.702028C17.4782 0.702028 17.6328 0.86076 17.6328 1.05477L17.6328 25.8832L27.0387 14.7587C27.1676 14.6044 27.3567 14.5162 27.5586 14.5162L31.0391 14.5162C31.3313 14.5162 31.4903 14.8733 31.2969 15.0982L17.0356 31.9636C16.9067 32.1162 16.7473 32.2386 16.5683 32.3225C16.3892 32.4064 16.1947 32.4498 15.9979 32.4498C15.8011 32.4498 15.6065 32.4064 15.4275 32.3225C15.2485 32.2386 15.0891 32.1162 14.9602 31.9636L0.703155 15.0982C0.509795 14.8689 0.668781 14.5162 0.960967 14.5162Z" fill="white"/>
</svg>
