<svg width="28" height="25" viewBox="0 0 28 25" fill="white" xmlns="http://www.w3.org/2000/svg">
<path d="M23.3782 18.6925C26.3549 15.7876 27.9999 12.4962 27.9999 12.4962C27.9999 12.4962 22.7499 1.97119 13.9999 1.97119C12.3192 1.97752 10.6575 2.36047 9.11743 3.09641L10.4649 4.57182C11.5979 4.1205 12.7941 3.88804 13.9999 3.88483C17.7099 3.88483 20.7882 6.11995 23.0439 8.58663C24.1296 9.78014 25.1028 11.0899 25.9489 12.4962C25.8474 12.6627 25.7354 12.8464 25.6077 13.0473C25.0214 13.9659 24.1552 15.1906 23.0439 16.4057C22.7552 16.7215 22.4542 17.0334 22.1392 17.3358L23.3782 18.6925Z" fill="white"/>
<path d="M19.7696 14.7465C20.1602 13.5521 20.2325 12.261 19.9782 11.0234C19.7239 9.78579 19.1534 8.6526 18.3332 7.75566C17.513 6.85873 16.4767 6.23494 15.3449 5.95687C14.2131 5.67879 13.0324 5.75788 11.9401 6.18492L13.3804 7.75984C14.0529 7.65457 14.7387 7.72203 15.3832 7.95687C16.0278 8.19171 16.6135 8.58747 17.0939 9.1128C17.5743 9.63813 17.9362 10.2786 18.151 10.9834C18.3657 11.6882 18.4274 12.4381 18.3311 13.1735L19.7696 14.7465ZM14.6194 17.2323L16.0579 18.8053C14.9656 19.2324 13.7849 19.3115 12.6531 19.0334C11.5214 18.7553 10.4851 18.1315 9.66482 17.2346C8.84459 16.3377 8.27413 15.2045 8.01984 13.9669C7.76555 12.7293 7.83787 11.4381 8.22839 10.2437L9.66864 11.8187C9.57238 12.5541 9.63407 13.3039 9.84882 14.0088C10.0636 14.7136 10.4255 15.354 10.9059 15.8794C11.3863 16.4047 11.972 16.8005 12.6166 17.0353C13.2611 17.2701 13.9468 17.3376 14.6194 17.2323V17.2323Z" fill="white"/>
<path d="M5.8625 7.65466C5.5475 7.96084 5.24475 8.27085 4.956 8.5866C3.87038 9.78011 2.89716 11.0899 2.051 12.4962L2.39225 13.0473C2.9785 13.9658 3.84475 15.1906 4.956 16.4057C7.21175 18.8724 10.2917 21.1075 14 21.1075C15.253 21.1075 16.4325 20.853 17.535 20.4186L18.8825 21.8959C17.3424 22.6318 15.6807 23.0148 14 23.0211C5.25 23.0211 0 12.4962 0 12.4962C0 12.4962 1.64325 9.20279 4.62175 6.2998L5.86075 7.65657L5.8625 7.65466ZM23.8805 24.6554L2.8805 1.69177L4.1195 0.336914L25.1195 23.3005L23.8805 24.6554Z" fill="white"/>
</svg>
