<svg width="28" height="31" viewBox="0 0 28 31" fill="white" xmlns="http://www.w3.org/2000/svg">
<path d="M28 15.4962C28 15.4962 22.75 4.97119 14 4.97119C5.25 4.97119 0 15.4962 0 15.4962C0 15.4962 5.25 26.0212 14 26.0212C22.75 26.0212 28 15.4962 28 15.4962ZM2.05275 15.4962C2.8989 14.0899 3.87212 12.7801 4.95775 11.5866C7.21 9.11995 10.29 6.88483 14 6.88483C17.71 6.88483 20.7883 9.11995 23.044 11.5866C24.1296 12.7801 25.1028 14.0899 25.949 15.4962C25.8475 15.6627 25.7355 15.8464 25.6078 16.0473C25.0215 16.9659 24.1553 18.1906 23.044 19.4057C20.7883 21.8724 17.7082 24.1075 14 24.1075C10.29 24.1075 7.21175 21.8724 4.956 19.4057C3.87038 18.2122 2.89716 16.9025 2.051 15.4962H2.05275Z" fill="white"/>
<path d="M14 10.712C12.8397 10.712 11.7269 11.216 10.9064 12.1132C10.0859 13.0104 9.625 14.2272 9.625 15.4961C9.625 16.7649 10.0859 17.9817 10.9064 18.8789C11.7269 19.7761 12.8397 20.2802 14 20.2802C15.1603 20.2802 16.2731 19.7761 17.0936 18.8789C17.9141 17.9817 18.375 16.7649 18.375 15.4961C18.375 14.2272 17.9141 13.0104 17.0936 12.1132C16.2731 11.216 15.1603 10.712 14 10.712ZM7.875 15.4961C7.875 13.7197 8.52031 12.0161 9.66897 10.7601C10.8176 9.50399 12.3755 8.79834 14 8.79834C15.6245 8.79834 17.1824 9.50399 18.331 10.7601C19.4797 12.0161 20.125 13.7197 20.125 15.4961C20.125 17.2724 19.4797 18.976 18.331 20.2321C17.1824 21.4881 15.6245 22.1938 14 22.1938C12.3755 22.1938 10.8176 21.4881 9.66897 20.2321C8.52031 18.976 7.875 17.2724 7.875 15.4961Z" fill="white"/>
</svg>
