<svg width="38" height="38" viewBox="0 0 38 38" fill="none" xmlns="http://www.w3.org/2000/svg">
<path d="M19 14.4533C18.1007 14.4533 17.2217 14.7199 16.474 15.2195C15.7263 15.7191 15.1435 16.4292 14.7994 17.26C14.4553 18.0908 14.3652 19.005 14.5407 19.887C14.7161 20.7689 15.1491 21.5791 15.785 22.2149C16.4208 22.8508 17.231 23.2838 18.1129 23.4593C18.9949 23.6347 19.9091 23.5447 20.7399 23.2005C21.5707 22.8564 22.2808 22.2736 22.7804 21.526C23.28 20.7783 23.5466 19.8992 23.5466 19C23.5466 18.4029 23.429 17.8117 23.2005 17.26C22.972 16.7084 22.6371 16.2072 22.2149 15.785C21.7927 15.3628 21.2915 15.0279 20.7399 14.7994C20.1883 14.5709 19.597 14.4533 19 14.4533ZM37.205 9.96163C37.1953 8.54585 36.9346 7.14301 36.435 5.81829C36.067 4.84894 35.4976 3.96863 34.7645 3.23547C34.0313 2.5023 33.151 1.93294 32.1816 1.56496C30.8569 1.06531 29.4541 0.804604 28.0383 0.794959C25.6733 0.666626 24.9766 0.666626 19 0.666626C13.0233 0.666626 12.3266 0.666626 9.96163 0.794959C8.54585 0.804604 7.14301 1.06531 5.81829 1.56496C4.84894 1.93294 3.96863 2.5023 3.23547 3.23547C2.5023 3.96863 1.93294 4.84894 1.56496 5.81829C1.06531 7.14301 0.804604 8.54585 0.794959 9.96163C0.666626 12.3266 0.666626 13.0233 0.666626 19C0.666626 24.9766 0.666626 25.6733 0.794959 28.0383C0.814693 29.4591 1.07505 30.8662 1.56496 32.2C1.93131 33.1649 2.5002 34.0401 3.23329 34.7666C3.96331 35.5042 4.84551 36.0735 5.81829 36.435C7.14301 36.9346 8.54585 37.1953 9.96163 37.205C12.3266 37.3333 13.0233 37.3333 19 37.3333C24.9766 37.3333 25.6733 37.3333 28.0383 37.205C29.4541 37.1953 30.8569 36.9346 32.1816 36.435C33.1544 36.0735 34.0366 35.5042 34.7666 34.7666C35.4997 34.0401 36.0686 33.1649 36.435 32.2C36.9341 30.8687 37.1948 29.46 37.205 28.0383C37.3333 25.6733 37.3333 24.9766 37.3333 19C37.3333 13.0233 37.3333 12.3266 37.205 9.96163ZM32.5483 24.6283C32.4895 25.7597 32.248 26.874 31.8333 27.9283C31.4774 28.8077 30.9483 29.6066 30.2774 30.2774C29.6066 30.9483 28.8077 31.4774 27.9283 31.8333C26.8641 32.2249 25.7435 32.4416 24.61 32.475H13.39C12.2565 32.4416 11.1359 32.2249 10.0716 31.8333C9.16248 31.4954 8.34147 30.9565 7.66996 30.2566C7.00568 29.5989 6.49267 28.8044 6.16663 27.9283C5.77348 26.8652 5.56274 25.7433 5.54329 24.61V19V13.39C5.56274 12.2566 5.77348 11.1347 6.16663 10.0716C6.50448 9.16248 7.04346 8.34147 7.74329 7.66996C8.4039 7.00927 9.19761 6.4968 10.0716 6.16663C11.1359 5.77504 12.2565 5.55834 13.39 5.52496H24.61C25.7435 5.55834 26.8641 5.77504 27.9283 6.16663C28.8374 6.50448 29.6585 7.04346 30.33 7.74329C30.9942 8.401 31.5072 9.19554 31.8333 10.0716C32.2249 11.1359 32.4416 12.2565 32.475 13.39V19C32.475 22.7766 32.6033 23.1616 32.5483 24.61V24.6283ZM29.615 10.9883C29.3967 10.3961 29.0525 9.8583 28.6062 9.41202C28.1599 8.96573 27.6222 8.62157 27.03 8.40329C26.2168 8.12144 25.3604 7.98491 24.5 7.99996H13.5C12.6351 8.00841 11.7786 8.16979 10.97 8.47663C10.3868 8.685 9.85473 9.0151 9.40903 9.44499C8.96333 9.87489 8.61424 10.3947 8.38496 10.97C8.11872 11.7865 7.98865 12.6412 7.99996 13.5V24.5C8.01814 25.3638 8.1792 26.2187 8.47663 27.03C8.69491 27.6222 9.03906 28.1599 9.48535 28.6062C9.93164 29.0525 10.4694 29.3967 11.0616 29.615C11.8438 29.9026 12.667 30.0635 13.5 30.0916H24.5C25.3648 30.0832 26.2213 29.9218 27.03 29.615C27.6222 29.3967 28.1599 29.0525 28.6062 28.6062C29.0525 28.1599 29.3967 27.6222 29.615 27.03C29.9218 26.2213 30.0832 25.3648 30.0916 24.5V19V13.5C30.0922 12.6343 29.9305 11.7761 29.615 10.97V10.9883ZM19 26.0033C18.0811 26.0033 17.1713 25.822 16.3227 25.4698C15.474 25.1177 14.7032 24.6015 14.0543 23.951C13.4055 23.3004 12.8913 22.5282 12.5414 21.6786C12.1914 20.8291 12.0125 19.9188 12.015 19C12.015 17.6141 12.4262 16.2593 13.1965 15.1072C13.9669 13.9551 15.0617 13.0575 16.3425 12.528C17.6232 11.9985 19.0323 11.8609 20.3913 12.1326C21.7503 12.4043 22.9982 13.0731 23.9769 14.0544C24.9556 15.0356 25.6211 16.2852 25.8893 17.6449C26.1574 19.0047 26.0161 20.4134 25.4833 21.6927C24.9504 22.9721 24.0499 24.0646 22.8958 24.8319C21.7417 25.5993 20.3859 26.0069 19 26.0033ZM26.3333 13.3716C25.928 13.3287 25.553 13.1374 25.2804 12.8344C25.0078 12.5314 24.857 12.1383 24.857 11.7308C24.857 11.3233 25.0078 10.9301 25.2804 10.6272C25.553 10.3242 25.928 10.1329 26.3333 10.09C26.7386 10.1329 27.1136 10.3242 27.3862 10.6272C27.6588 10.9301 27.8096 11.3233 27.8096 11.7308C27.8096 12.1383 27.6588 12.5314 27.3862 12.8344C27.1136 13.1374 26.7386 13.3287 26.3333 13.3716Z" fill="black"/>
</svg>
