<svg width="31" height="25" viewBox="0 0 31 25" fill="none" xmlns="http://www.w3.org/2000/svg">
<path d="M29.7188 0.46875H1.28125C0.67627 0.46875 0.1875 0.95752 0.1875 1.5625V23.4375C0.1875 24.0425 0.67627 24.5312 1.28125 24.5312H29.7188C30.3237 24.5312 30.8125 24.0425 30.8125 23.4375V1.5625C30.8125 0.95752 30.3237 0.46875 29.7188 0.46875ZM26.957 4.19092L16.1733 12.582C15.9067 12.7905 15.5342 12.7905 15.2676 12.582L4.48047 4.19092C4.43981 4.15954 4.40998 4.11622 4.39517 4.06703C4.38037 4.01785 4.38132 3.96526 4.3979 3.91665C4.41448 3.86803 4.44586 3.82583 4.48764 3.79594C4.52941 3.76606 4.57949 3.74999 4.63086 3.75H26.8066C26.858 3.74999 26.9081 3.76606 26.9499 3.79594C26.9916 3.82583 27.023 3.86803 27.0396 3.91665C27.0562 3.96526 27.0571 4.01785 27.0423 4.06703C27.0275 4.11622 26.9977 4.15954 26.957 4.19092Z" fill="black"/>
</svg>
