<svg width="33" height="37" viewBox="0 0 33 37" fill="none" xmlns="http://www.w3.org/2000/svg">
<path d="M18.8125 0H23.3913C23.7243 1.65344 24.64 3.73931 26.2472 5.809C27.8197 7.83706 29.9056 9.25 32.6875 9.25V13.875C28.6337 13.875 25.5881 11.9926 23.4375 9.64544V25.4375C23.4375 27.7243 22.7594 29.9598 21.4889 31.8613C20.2184 33.7627 18.4126 35.2447 16.2998 36.1199C14.187 36.995 11.8622 37.224 9.61927 36.7778C7.37637 36.3317 5.31613 35.2305 3.69908 33.6134C2.08204 31.9964 0.980817 29.9361 0.534675 27.6932C0.0885338 25.4503 0.31751 23.1255 1.19265 21.0127C2.06779 18.9 3.54978 17.0941 5.45122 15.8236C7.35267 14.5531 9.58816 13.875 11.875 13.875V18.5C10.5029 18.5 9.1616 18.9069 8.02074 19.6692C6.87987 20.4315 5.99067 21.515 5.46559 22.7826C4.94051 24.0503 4.80312 25.4452 5.07081 26.7909C5.33849 28.1367 5.99923 29.3728 6.96945 30.3431C7.93968 31.3133 9.17582 31.974 10.5216 32.2417C11.8673 32.5094 13.2622 32.372 14.5299 31.8469C15.7975 31.3218 16.881 30.4326 17.6433 29.2918C18.4056 28.1509 18.8125 26.8096 18.8125 25.4375V0Z" fill="black"/>
</svg>
