<svg width="27" height="24" viewBox="0 0 27 24" fill="none" xmlns="http://www.w3.org/2000/svg">
<g clip-path="url(#clip0_18_26)">
<path fill-rule="evenodd" clip-rule="evenodd" d="M4.16577 7.6095L5.82395 23.0085C5.82395 23.5575 6.32059 24 6.93048 24H19.1929C19.4814 24.0044 19.76 23.9025 19.9674 23.7166C20.1749 23.5307 20.2943 23.276 20.2994 23.0085L21.9576 7.6095H4.16577ZM13.9547 21.102H12.2205V10.4835H13.9547V21.102ZM17.1901 21.102H15.4559L17.0737 10.4835H18.8079L17.1901 21.102ZM10.7192 21.102H8.985L7.36726 10.4835H9.10147L10.7192 21.102Z" fill="#E0E0E0"/>
<path fill-rule="evenodd" clip-rule="evenodd" d="M22.1113 3.1575H17.0348V1.0635C17.0348 0.4755 16.2971 0 15.65 0H10.6431C9.99605 0 9.09821 0.3375 9.09821 0.9225V3.0165L4.01044 3.1575C3.85798 3.15552 3.7066 3.18143 3.56494 3.23374C3.42329 3.28606 3.29416 3.36376 3.18492 3.4624C3.07569 3.56104 2.9885 3.67868 2.92834 3.80859C2.86819 3.9385 2.83625 4.07813 2.83435 4.2195V5.952H23.2841V4.2195C23.2826 4.07827 23.2511 3.9387 23.1913 3.80881C23.1315 3.67892 23.0446 3.56126 22.9356 3.46258C22.8266 3.3639 22.6977 3.28616 22.5563 3.2338C22.4148 3.18145 22.2636 3.15552 22.1113 3.1575ZM10.5801 2.16C10.5801 1.692 11.1479 1.3125 11.8467 1.3125H14.3769C15.0757 1.3125 15.6419 1.6935 15.6419 2.16V3.1575H10.5784V2.16H10.5801Z" fill="#E0E0E0"/>
</g>
<defs>
<clipPath id="clip0_18_26">
<rect width="25.8837" height="24" fill="white" transform="translate(0.959351)"/>
</clipPath>
</defs>
</svg>
