<svg width="32" height="33" viewBox="0 0 32 33" fill="none" xmlns="http://www.w3.org/2000/svg">
<path d="M31.0726 18.3728L27.5927 18.4336C27.395 18.437 27.2045 18.3522 27.0686 18.2002L17.47 7.24151L17.9033 32.0662C17.9067 32.2602 17.7548 32.4216 17.5658 32.4249L14.9881 32.4699C14.799 32.4732 14.6416 32.3172 14.6382 32.1232L14.2049 7.2985L4.99462 18.5855C4.86842 18.742 4.68093 18.8335 4.47901 18.837L0.999068 18.8978C0.706925 18.9029 0.541731 18.5486 0.731137 18.3203L14.6959 1.20865C14.8222 1.05381 14.9794 0.928657 15.1569 0.841664C15.3345 0.75467 15.5282 0.707871 15.725 0.704436C15.9218 0.701001 16.117 0.741011 16.2975 0.821755C16.478 0.902499 16.6395 1.02209 16.771 1.17243L31.3202 17.7864C31.5176 18.0123 31.3647 18.3677 31.0726 18.3728Z" fill="white"/>
</svg>
