<?xml version="1.0" standalone="no"?>
<!DOCTYPE svg PUBLIC "-//W3C//DTD SVG 20010904//EN"
 "http://www.w3.org/TR/2001/REC-SVG-20010904/DTD/svg10.dtd">
<svg version="1.0" xmlns="http://www.w3.org/2000/svg"
 width="1150.000000pt" height="1150.000000pt" viewBox="0 0 1150.000000 1150.000000"
 preserveAspectRatio="xMidYMid meet">
<metadata>
Created by potrace 1.14, written by Peter Selinger 2001-2017
</metadata>
<g transform="translate(0.000000,1150.000000) scale(0.100000,-0.100000)"
fill="#000000" stroke="none">
<path d="M0 5750 l0 -5750 5750 0 5750 0 0 5750 0 5750 -5750 0 -5750 0 0
-5750z m4385 3114 c1073 -3 3047 -1 4388 5 1341 6 2467 9 2502 5 l63 -7 -16
-33 c-8 -19 -19 -34 -22 -34 -4 0 -15 -21 -25 -47 -10 -27 -21 -50 -25 -53 -4
-3 -26 -41 -50 -85 -23 -44 -51 -92 -62 -107 l-19 -28 -5367 0 -5367 0 -25 43
c-31 53 -104 191 -126 237 -9 19 -19 37 -23 40 -3 3 -12 18 -19 34 -11 24 -11
31 0 38 8 6 461 7 1128 4 613 -3 1993 -9 3065 -12z m-3457 -656 c18 -18 9574
-18 9580 0 3 9 50 12 178 12 148 0 174 -2 174 -15 0 -8 -4 -15 -8 -15 -4 0
-14 -17 -21 -37 -8 -21 -19 -45 -26 -53 -7 -8 -16 -26 -20 -40 -4 -14 -32 -75
-63 -136 l-55 -111 -75 -7 c-41 -3 -2251 -6 -4911 -6 l-4836 0 -19 48 c-11 26
-22 49 -25 52 -10 8 -53 101 -73 154 -10 27 -22 52 -26 55 -9 7 -42 86 -42
101 0 15 253 13 268 -2z m1940 -2130 c1 -953 -1 -1438 -8 -1438 -7 0 -11 -401
-12 -1177 l-3 -1178 -335 -3 c-184 -2 -404 0 -488 3 l-152 7 6 142 c4 77 10
143 14 146 6 5 41 724 40 843 0 31 4 57 10 57 6 0 10 56 10 148 0 195 31 986
40 992 3 3 15 190 25 415 10 226 21 412 25 415 4 3 13 131 20 285 7 154 16
285 20 290 4 6 15 165 24 355 10 190 21 354 26 365 4 11 16 155 25 320 9 165
20 309 25 320 5 11 11 40 12 65 l3 45 138 3 c82 1 137 7 137 12 0 7 72 9 198
8 l197 -3 3 -1437z m6446 1370 c3 -29 6 -80 6 -113 0 -34 4 -65 9 -70 4 -6 14
-127 21 -270 7 -143 16 -264 20 -270 4 -5 16 -156 26 -335 10 -179 21 -327 24
-330 4 -3 14 -176 24 -385 10 -209 21 -389 26 -400 7 -18 41 -682 40 -802 0
-28 4 -53 8 -55 5 -1 17 -201 27 -443 10 -242 21 -442 25 -445 4 -3 15 -219
24 -480 10 -261 22 -483 27 -492 5 -10 9 -73 9 -142 l0 -123 -31 -7 c-17 -3
-235 -6 -484 -6 l-452 0 -6 878 c-4 482 -7 1386 -7 2009 0 744 -3 1134 -10
1138 -6 4 -10 215 -10 601 l0 594 339 0 338 0 7 -52z m-3264 -273 l0 -315
-290 0 -290 0 0 315 0 315 290 0 290 0 0 -315z m2218 -851 l2 -261 -577 -6
c-318 -4 -1452 -7 -2520 -7 l-1943 0 0 265 0 265 2473 3 c1359 1 2492 2 2517
2 l45 0 3 -261z m-6511 169 c-4 -49 -9 -146 -13 -216 -4 -70 -11 -130 -16
-133 -4 -3 -8 -31 -8 -62 0 -31 -4 -63 -9 -70 -7 -11 -72 -11 -366 -3 -197 6
-359 12 -359 13 -1 2 -15 32 -33 68 -66 137 -111 237 -128 283 -10 26 -21 47
-25 47 -3 0 -14 25 -24 55 -9 30 -21 57 -26 60 -33 21 12 25 255 25 170 0 265
4 265 10 0 6 89 10 246 10 l247 0 -6 -87z m8989 62 c-8 -33 -83 -199 -147
-329 -16 -32 -29 -67 -29 -77 0 -11 -4 -19 -9 -19 -5 0 -14 -15 -21 -34 -21
-66 -20 -65 -316 -76 -148 -5 -310 -10 -360 -10 l-90 0 -17 263 c-10 144 -17
272 -17 285 l0 22 506 0 506 0 -6 -25z"/>
</g>
</svg>
