<?xml version="1.0" standalone="no"?>
<!DOCTYPE svg PUBLIC "-//W3C//DTD SVG 20010904//EN"
 "http://www.w3.org/TR/2001/REC-SVG-20010904/DTD/svg10.dtd">
<svg version="1.0" xmlns="http://www.w3.org/2000/svg"
 width="512.000000pt" height="512.000000pt" viewBox="0 0 512.000000 512.000000"
 preserveAspectRatio="xMidYMid meet">
<metadata>
Created by potrace 1.14, written by Peter Selinger 2001-2017
</metadata>
<g transform="translate(0.000000,512.000000) scale(0.100000,-0.100000)"
fill="#000000" stroke="none">
<path d="M2407 4734 c-1 -1 -39 -4 -84 -8 -45 -3 -88 -8 -95 -11 -7 -2 -26 -6
-43 -8 -54 -8 -105 -19 -105 -23 0 -4 123 -466 145 -544 8 -30 40 -147 70
-259 30 -112 57 -206 60 -210 6 -6 464 -10 476 -4 7 3 2 24 -54 233 -14 52
-39 147 -56 210 -17 63 -35 131 -41 150 -5 19 -30 112 -55 205 -25 94 -53 194
-61 223 l-15 53 -70 -3 c-39 -1 -71 -3 -72 -4z"/>
<path d="M2700 4722 c0 -10 5 -33 11 -52 5 -19 12 -42 14 -50 2 -8 12 -49 23
-90 12 -41 33 -120 47 -175 15 -55 38 -140 51 -190 14 -49 27 -97 29 -105 17
-74 99 -368 105 -380 7 -13 45 -15 244 -15 130 0 236 2 236 4 0 1 -7 31 -16
65 -9 33 -18 68 -20 76 -4 15 -7 28 -44 165 -12 44 -41 154 -65 245 -25 91
-49 179 -54 195 -5 17 -20 68 -32 115 -28 111 -32 117 -77 130 -68 19 -276 59
-342 65 -36 4 -75 8 -87 10 -16 3 -23 -1 -23 -13z"/>
<path d="M1910 4643 c-202 -73 -410 -167 -469 -212 l-24 -18 42 -159 c23 -88
53 -202 67 -254 14 -52 28 -102 29 -110 21 -85 60 -216 66 -220 10 -7 577 -6
584 1 3 3 -8 53 -24 110 -16 57 -75 276 -132 487 -57 210 -108 382 -114 381
-5 0 -17 -3 -25 -6z"/>
<path d="M3360 4582 c0 -4 39 -151 86 -327 124 -466 132 -496 147 -545 l13
-45 199 3 c110 2 201 4 202 5 1 2 -16 68 -134 509 -20 75 -39 141 -42 146 -27
42 -471 282 -471 254z"/>
<path d="M1244 4300 c-91 -71 -135 -111 -242 -217 -90 -91 -112 -117 -108
-135 3 -13 16 -66 31 -118 14 -52 28 -108 32 -123 3 -16 11 -30 17 -33 6 -2
120 -5 254 -6 167 -2 242 0 242 8 0 6 -7 34 -16 64 -9 29 -17 61 -19 69 -12
64 -140 521 -145 521 -4 0 -25 -14 -46 -30z"/>
<path d="M4025 4150 c4 -19 34 -133 66 -253 32 -120 59 -220 59 -223 0 -9 47
-3 57 7 12 12 169 16 180 5 13 -13 10 -78 -3 -83 -7 -3 -31 -38 -53 -78 -22
-40 -54 -84 -71 -98 -16 -14 -30 -31 -30 -37 0 -9 37 -150 207 -780 8 -30 16
-62 18 -70 3 -8 18 -64 34 -125 16 -60 39 -146 51 -190 36 -135 77 -279 87
-305 10 -24 10 -24 21 10 31 98 65 261 78 376 16 133 9 503 -11 594 -3 14 -8
41 -11 60 -3 19 -10 53 -15 75 -5 22 -12 51 -15 64 -11 52 -67 216 -104 306
-106 254 -267 493 -468 695 -82 83 -84 84 -77 50z"/>
<path d="M724 3735 c-59 -90 -162 -289 -188 -362 -12 -36 -10 -50 46 -253 80
-295 119 -441 124 -469 3 -13 9 -31 13 -40 5 -9 11 -32 15 -51 3 -19 13 -57
21 -85 12 -40 64 -229 81 -295 16 -63 31 -121 103 -390 45 -168 88 -327 96
-355 8 -27 47 -167 85 -310 61 -226 74 -263 98 -283 97 -82 423 -275 430 -254
1 5 -13 70 -33 143 -20 74 -49 181 -64 239 -16 58 -54 202 -86 321 l-58 215
-96 -2 c-118 -2 -109 1 -106 -28 5 -41 -10 -50 -78 -47 -27 1 -27 2 -23 49 2
26 7 54 11 64 8 20 45 35 108 44 55 7 59 12 63 73 16 253 20 220 -61 526 -41
154 -81 303 -89 330 -8 28 -21 72 -28 100 -10 36 -19 51 -33 53 -11 2 -28 11
-38 20 -26 23 -136 266 -126 277 3 2 24 7 48 9 53 5 56 9 42 43 -6 15 -13 38
-15 50 -3 12 -17 66 -31 120 -15 54 -33 122 -41 152 -10 37 -26 65 -52 90 -20
20 -52 65 -70 99 -19 35 -40 66 -48 69 -13 5 -18 92 -5 94 3 1 20 2 38 3 18 1
34 4 36 6 2 3 -3 32 -13 65 l-17 60 -59 -90z"/>
<path d="M875 3592 c-4 -5 55 -111 66 -118 9 -5 1718 -8 2866 -5 l383 1 30 53
c16 28 30 57 30 62 0 9 -3366 16 -3375 7z"/>
<path d="M1020 3392 c0 -11 54 -118 62 -123 5 -3 675 -6 1488 -6 l1479 0 30
64 c17 35 31 65 31 66 0 1 -695 2 -1545 2 -850 0 -1545 -1 -1545 -3z"/>
<path d="M4099 3218 c-31 -24 -53 -26 -210 -27 l-127 -1 -4 -29 c-5 -31 19
-161 31 -174 7 -7 398 -16 405 -10 2 3 -58 232 -67 254 -1 4 -13 -2 -28 -13z"/>
<path d="M1100 3184 c0 -22 53 -200 61 -205 5 -3 20 -4 32 -3 12 1 52 3 88 3
79 1 77 -2 85 122 l6 89 -136 0 c-75 0 -136 -3 -136 -6z"/>
<path d="M1545 3182 c-27 -2 -53 -6 -57 -10 -6 -7 -12 -63 -23 -212 -2 -36 -7
-99 -10 -140 -3 -41 -7 -109 -10 -150 -2 -41 -7 -113 -10 -160 -11 -173 -21
-363 -30 -580 -2 -52 -7 -149 -10 -215 l-7 -121 151 -2 150 -1 1 642 c0 353 2
709 3 790 1 82 -2 151 -7 154 -11 7 -73 9 -141 5z"/>
<path d="M1845 3180 l-50 -5 0 -100 1 -100 284 0 285 0 1 103 c1 69 -2 102
-10 103 -59 3 -473 3 -511 -1z"/>
<path d="M2798 3182 c-21 -2 -38 -9 -39 -15 -3 -37 0 -177 4 -184 3 -5 131 -8
284 -8 l278 0 0 104 0 104 -245 1 c-135 0 -262 0 -282 -2z"/>
<path d="M3463 3182 l-33 -3 4 -772 c3 -425 5 -782 5 -795 l1 -23 148 3 147 3
-1 55 c-1 55 -12 300 -19 415 -3 67 -13 228 -20 350 -3 44 -7 119 -10 166 -3
48 -7 111 -9 140 -3 30 -8 95 -12 144 -3 50 -7 106 -9 125 -2 19 -4 65 -6 102
-1 37 -5 71 -8 77 -7 10 -121 18 -178 13z"/>
<path d="M2477 3166 c-1 -6 -2 -49 -2 -96 l1 -85 72 -5 c110 -8 107 -11 107
102 l0 96 -87 -1 c-53 0 -89 -5 -91 -11z"/>
<path d="M431 3033 c-7 -32 -16 -77 -21 -99 -24 -104 -34 -464 -18 -614 51
-460 236 -865 567 -1242 22 -25 49 -40 37 -20 -4 7 -58 207 -96 359 -10 40
-21 76 -24 81 -3 5 -7 19 -9 33 -3 13 -33 127 -67 253 -34 125 -63 236 -65
245 -2 9 -22 84 -45 166 -23 83 -43 157 -45 165 -1 8 -15 59 -30 113 -14 53
-28 105 -30 115 -13 56 -135 495 -139 499 -2 3 -9 -22 -15 -54z"/>
<path d="M4194 2905 c-16 -48 -60 -143 -84 -183 -29 -50 -55 -60 -157 -64 -43
-2 -73 -7 -73 -14 0 -6 6 -33 14 -60 8 -27 27 -94 41 -149 30 -115 71 -269
108 -405 14 -52 62 -230 106 -395 44 -165 87 -322 96 -349 8 -26 15 -55 15
-62 0 -32 23 -7 103 114 100 149 191 318 184 341 -7 21 -125 460 -143 531 -8
30 -16 62 -19 70 -14 53 -90 330 -125 460 -47 175 -55 195 -66 165z"/>
<path d="M1054 2875 c11 -45 58 -135 74 -143 22 -11 209 -15 215 -5 3 4 8 45
11 90 l6 82 -155 -2 c-153 -1 -156 -2 -151 -22z"/>
<path d="M1799 2891 c-1 -3 -1 -40 -2 -81 l-1 -75 754 -1 c415 0 760 1 766 3
7 3 11 34 11 84 l1 80 -764 -2 c-420 0 -764 -4 -765 -8z"/>
<path d="M3766 2833 c8 -122 -2 -113 126 -108 61 3 112 6 113 7 12 14 72 158
67 162 -3 3 -74 6 -158 6 l-153 0 5 -67z"/>
<path d="M1247 2653 c-3 -2 9 -52 24 -111 16 -59 32 -119 35 -135 12 -52 24
-38 25 30 1 37 2 102 3 143 l1 74 -42 2 c-24 0 -44 -1 -46 -3z"/>
<path d="M1890 2652 c0 -4 22 -90 50 -192 27 -102 59 -219 70 -260 11 -41 41
-151 66 -244 25 -93 47 -176 49 -185 2 -9 17 -65 34 -126 32 -119 172 -641
271 -1010 34 -126 64 -236 66 -244 4 -11 30 -13 147 -7 78 3 158 8 177 11 19
3 51 7 70 10 54 8 91 14 141 26 l46 10 -17 67 c-40 149 -74 277 -127 472 -30
113 -57 212 -59 220 -1 8 -49 184 -104 390 -56 206 -110 407 -120 445 -10 39
-26 97 -35 130 -27 98 -75 279 -79 295 -13 53 -50 186 -53 190 -7 8 -593 10
-593 2z"/>
<path d="M2630 2638 c0 -9 4 -28 10 -43 5 -14 12 -36 15 -48 2 -12 9 -40 15
-62 6 -22 12 -47 14 -55 2 -8 27 -100 56 -205 28 -104 62 -233 76 -285 14 -52
31 -117 39 -145 9 -27 47 -169 86 -315 39 -146 81 -303 94 -350 80 -298 106
-394 125 -465 30 -116 50 -185 53 -185 6 0 148 51 182 65 22 9 86 40 143 68
111 55 107 49 86 127 -3 14 -33 126 -66 250 -32 124 -72 272 -88 330 -16 58
-34 123 -39 146 l-11 41 -75 -1 c-74 0 -75 -1 -75 -26 0 -37 -13 -51 -51 -54
-51 -4 -56 0 -52 51 6 77 23 94 107 107 21 4 42 8 46 11 13 8 3 277 -13 335
-21 73 -141 519 -172 637 -8 32 -17 64 -20 73 -4 14 -36 16 -245 16 -219 -1
-240 -2 -240 -18z"/>
<path d="M3283 2540 c16 -67 32 -119 34 -116 8 7 6 213 -2 225 -3 6 -19 11
-34 11 l-29 0 31 -120z"/>
<path d="M1801 2280 c-2 -165 -4 -577 -2 -646 1 -42 1 -42 47 -49 90 -13 101
-24 110 -107 5 -41 3 -48 -13 -49 -23 -2 -76 1 -79 4 -2 2 -8 34 -13 68 -1 7
-287 6 -294 -1 -3 -3 3 -37 14 -75 11 -39 22 -77 24 -85 1 -8 9 -35 16 -60 7
-25 13 -49 14 -55 2 -5 24 -88 49 -183 26 -95 49 -181 51 -190 2 -9 21 -78 41
-152 20 -74 39 -147 42 -163 4 -25 13 -30 101 -57 97 -31 292 -74 389 -85 36
-4 52 -3 52 5 0 6 -66 255 -146 553 -80 298 -165 616 -190 707 -24 91 -73 273
-109 405 -36 132 -68 253 -71 268 -3 15 -11 45 -18 65 -12 34 -13 23 -15 -118z"/>
<path d="M3793 2395 c3 -6 8 -65 12 -130 3 -66 8 -149 10 -185 3 -36 7 -117
10 -180 8 -175 15 -273 21 -291 3 -12 26 -21 70 -30 81 -16 104 -40 104 -108
0 -45 -1 -47 -27 -45 -16 1 -38 3 -50 3 -18 1 -22 8 -25 39 l-3 37 -165 1
c-91 1 -170 -1 -177 -3 -8 -3 -6 -22 7 -67 10 -35 55 -203 101 -374 45 -172
86 -312 90 -312 18 0 213 155 298 237 l91 88 -10 35 c-6 19 -24 87 -41 150
-17 63 -40 147 -50 185 -11 39 -22 81 -25 94 -4 20 -132 494 -175 651 -19 70
-19 68 -40 150 -6 25 -16 50 -22 55 -7 7 -8 7 -4 0z"/>
</g>
</svg>
